<?xml version="1.0" encoding="iso-8859-1"?>
<!-- Generator: Adobe Illustrator 17.1.0, SVG Export Plug-In . SVG Version: 6.00 Build 0)  -->
<!DOCTYPE svg PUBLIC "-//W3C//DTD SVG 1.1//EN" "http://www.w3.org/Graphics/SVG/1.1/DTD/svg11.dtd">
<svg version="1.1" id="Capa_1" xmlns="http://www.w3.org/2000/svg" xmlns:xlink="http://www.w3.org/1999/xlink" x="0px" y="0px"
	 viewBox="0 0 341.721 341.721" style="enable-background:new 0 0 341.721 341.721;" xml:space="preserve">
<path d="M313.696,16.234c-4.274-2.311-9.299-2.068-13.44,0.642l-27.993,18.322c-3.697,2.42-4.732,7.378-2.313,11.075
	c2.419,3.696,7.377,4.733,11.074,2.313l24.79-16.225v242.977c0,1.249-1.522,3.659-5.795,6.678l-31.61,22.34V82.769
	c0-19.812-16.118-35.93-35.93-35.93H55.935c-5.418,0-10.556,1.212-15.167,3.369C51.842,28.675,80.838,16,102.358,16h168.731
	c4.418,0,8-3.582,8-8s-3.582-8-8-8H102.358C84.916,0,65.371,6.299,50.076,16.85c-18.305,12.627-28.89,30.108-29.805,49.224
	c-0.459,9.596-0.383,15.678-0.309,21.56c0.019,1.524,0.036,3.003,0.045,4.505v213.654c0,19.811,16.117,35.929,35.928,35.929H232.48
	c4.254,0,8.335-0.748,12.125-2.111c1.261-0.158,2.503-0.608,3.613-1.392l0.698-0.493c2.969-1.534,5.698-3.469,8.114-5.735
	l52.224-36.908c8.335-5.891,12.561-12.534,12.561-19.744V30.717C321.815,24.585,318.628,18.9,313.696,16.234z M55.935,325.721
	c-10.988,0-19.928-8.94-19.928-19.929V95.608c0.008-1.177,0.006-2.314,0-3.431v-9.408c0-10.989,8.939-19.93,19.928-19.93H232.48
	c10.989,0,19.93,8.94,19.93,19.93v223.023c0,5.38-2.152,10.261-5.63,13.85l-6.021,4.256c-2.525,1.159-5.323,1.823-8.278,1.823
	H55.935z M224.193,280.021c0,4.418-3.582,8-8,8H72.223c-4.418,0-8-3.582-8-8s3.582-8,8-8h143.97
	C220.611,272.021,224.193,275.603,224.193,280.021z M144.21,260.169c43.594,0,79.06-35.468,79.06-79.063v-23.688
	c0-4.418-3.582-8-8-8H115.244l-30.94-53.941c-2.199-3.832-7.087-5.157-10.92-2.959c-3.833,2.198-5.157,7.087-2.959,10.92
	l26.374,45.98H73.147c-4.418,0-8,3.582-8,8v23.688C65.147,224.702,100.614,260.169,144.21,260.169z M81.147,165.418h24.83
	l10.812,18.849c-5.142,6.963-6.001,16.6-1.403,24.562l5.987,10.367c3.989,6.912,11.448,11.205,19.465,11.205
	c3.917,0,7.781-1.036,11.175-2.995c10.706-6.183,14.389-19.926,8.209-30.64l-5.988-10.367c-3.991-6.911-11.448-11.203-19.463-11.203
	c-1.504,0-3.003,0.163-4.473,0.464l-5.875-10.242h82.848v15.688c0,34.773-28.288,63.063-63.06,63.063
	c-34.773,0-63.063-28.29-63.063-63.063V165.418z M131.603,192.04l0.136-0.075c0.032-0.016,0.063-0.032,0.094-0.049
	c0.913-0.478,1.901-0.72,2.937-0.72c2.317,0,4.466,1.228,5.607,3.205l5.986,10.363c1.771,3.072,0.716,7.013-2.353,8.786
	c-0.978,0.564-2.046,0.851-3.175,0.851c-2.318,0-4.467-1.228-5.608-3.205l-5.988-10.369
	C127.468,197.758,128.523,193.818,131.603,192.04z"/>
<g>
</g>
<g>
</g>
<g>
</g>
<g>
</g>
<g>
</g>
<g>
</g>
<g>
</g>
<g>
</g>
<g>
</g>
<g>
</g>
<g>
</g>
<g>
</g>
<g>
</g>
<g>
</g>
<g>
</g>
</svg>
