<?xml version="1.0" encoding="iso-8859-1"?>
<!-- Generator: Adobe Illustrator 19.0.0, SVG Export Plug-In . SVG Version: 6.00 Build 0)  -->
<svg version="1.1" id="Layer_1" xmlns="http://www.w3.org/2000/svg" xmlns:xlink="http://www.w3.org/1999/xlink" x="0px" y="0px"
	 viewBox="0 0 193.222 193.222" style="enable-background:new 0 0 193.222 193.222;" xml:space="preserve">
<g>
	<g>
		<g>
			<path d="M180.896,39.082c4.132-6.188,3.211-12.492,0.531-16.804c-4.658-7.487-14.466-10.666-22.805-7.408
				c-11.218,4.391-12.777,16.486-11.904,24.006L131.587,49.67c-1.15-0.367-2.737-0.46-4.679,0.511
				c-6.527,3.266-14.318,7.852-16.371,9.075c-6.924,1.617-66.115,15.895-80.931,34.413c-13.856,17.324-8.505,41.384-6.668,47.976
				c-2.901,4.915-11.402,20.82-7.844,32.973c1.537,5.25,5.012,9.14,10.327,11.554c7.678,3.489,19.568,5.293,32.147,5.293
				c22.465,0,47.128-5.755,53.901-17.948c4.16-7.487,7.105-20.896,10.219-35.094c3.883-17.684,8.281-37.728,14.819-43.336
				c4.694-4.02,6.748-8.292,6.105-12.694c-0.242-1.649-0.872-3.112-1.682-4.425c4.298-2.907,14.235-7.977,21.08-4.549
				c10.053,5.03,17.995,5.813,23.609,2.353c5.045-3.118,7.603-9.375,7.603-18.591C193.222,43.87,186.258,40.161,180.896,39.082z
				 M131.7,89.479c-8.418,7.213-12.698,26.712-17.23,47.359c-2.865,13.055-5.827,26.55-9.461,33.092
				c-7.906,14.224-56.943,18.42-76.529,9.515c-3.312-1.508-5.373-3.764-6.293-6.899c-2.649-9.024,4.605-23.252,7.758-28.203
				l10.893-12.709c1.332-1.548,1.151-3.879-0.401-5.207c-1.541-1.328-3.879-1.155-5.207,0.401l-6.377,7.44
				c-1.593-8.822-2.645-24.523,6.525-35.982c11.456-14.325,59.739-27.928,77.377-31.963c0.379-0.086,0.743-0.231,1.079-0.433
				c0.083-0.051,7.917-4.741,14.848-8.317c0.231,3.103-0.505,9.45-1.876,15.404c-0.393,1.714,0.487,3.475,2.089,4.2
				c1.526,0.693,5.982,3.331,6.405,6.293C135.608,85.622,133.511,87.924,131.7,89.479z M181.733,69.485
				c-3.182,1.966-9.017,1.025-16.418-2.677c-12.672-6.326-28.25,4.798-29.617,5.808c-0.376-0.263-0.743-0.507-1.09-0.724
				c1.455-7.038,1.847-12.422,1.208-16.163l17.061-12.166c1.194-0.852,1.768-2.342,1.469-3.778
				c-0.123-0.577-2.847-14.191,6.967-18.031c5.589-2.187,11.42,0.538,13.838,4.427c2.302,3.702,1.274,7.837-2.894,11.644
				c-0.722,0.657-2.919,2.663-1.916,5.362c0.999,2.685,3.764,2.764,5.593,2.814c4.41,0.123,9.898,0.278,9.898,11.179
				C185.832,61.637,185.121,67.393,181.733,69.485z"/>
			<path d="M104.494,106.456c-0.333-2.013-2.242-3.392-4.251-3.038c-2.013,0.336-3.374,2.241-3.038,4.251l1.847,11.085
				c0.3,1.808,1.866,3.089,3.641,3.089c0.202,0,0.404-0.014,0.61-0.051c2.013-0.336,3.374-2.241,3.038-4.251L104.494,106.456z"/>
			<path d="M111.883,95.371c-0.335-2.013-2.233-3.395-4.251-3.038c-2.013,0.335-3.374,2.241-3.038,4.251l1.847,11.085
				c0.3,1.808,1.866,3.089,3.641,3.089c0.202,0,0.404-0.014,0.61-0.051c2.013-0.335,3.374-2.241,3.038-4.251L111.883,95.371z"/>
			<path d="M18.348,62.193l3.659-13.66l12.333-7.12v14.239L24.338,65.653c-1.443,1.443-1.443,3.781,0,5.225
				c0.721,0.722,1.667,1.083,2.612,1.083s1.891-0.361,2.612-1.083L34.34,66.1v2.281c0,2.042,1.653,3.695,3.695,3.695
				c2.042,0,3.695-1.653,3.695-3.695V66.1l4.778,4.778c0.721,0.722,1.667,1.083,2.612,1.083c0.946,0,1.891-0.361,2.612-1.083
				c1.443-1.443,1.443-3.781,0-5.225L41.73,55.651V45.107l9.132,5.273l3.659,13.661c0.44,1.653,1.934,2.739,3.565,2.739
				c0.317,0,0.639-0.04,0.96-0.126c1.97-0.527,3.139-2.555,2.612-4.525l-1.748-6.524l1.975,1.14
				c0.581,0.335,1.216,0.494,1.844,0.494c1.277,0,2.518-0.66,3.204-1.847c1.021-1.768,0.415-4.027-1.353-5.048l-1.973-1.139
				l6.523-1.747c1.97-0.527,3.139-2.555,2.612-4.525c-0.523-1.974-2.551-3.143-4.525-2.612L54.556,43.98l-12.331-7.12l12.331-7.12
				l13.661,3.659c0.321,0.086,0.642,0.126,0.96,0.126c1.631,0,3.125-1.09,3.565-2.739c0.527-1.97-0.642-3.998-2.612-4.525
				l-6.523-1.748l1.973-1.139c1.768-1.021,2.374-3.28,1.353-5.048c-1.025-1.772-3.287-2.374-5.048-1.353l-1.975,1.14l1.748-6.524
				c0.527-1.97-0.642-3.998-2.612-4.525c-1.959-0.531-3.998,0.642-4.525,2.612l-3.659,13.661L41.73,28.61V18.067L51.732,8.065
				c1.443-1.443,1.443-3.781,0-5.225c-1.443-1.444-3.781-1.443-5.225,0L41.73,7.617V5.452c0-2.042-1.653-3.695-3.695-3.695
				c-2.042,0-3.695,1.653-3.695,3.695v2.165L29.563,2.84c-1.443-1.443-3.781-1.443-5.225,0c-1.444,1.443-1.443,3.781,0,5.225
				L34.34,18.067v14.239l-12.333-7.12l-3.659-13.66c-0.523-1.974-2.547-3.143-4.525-2.613c-1.97,0.527-3.139,2.555-2.612,4.525
				l1.747,6.523l-1.874-1.082c-1.768-1.021-4.027-0.419-5.048,1.353C5.015,22,5.622,24.259,7.39,25.28l1.873,1.082L2.739,28.11
				c-1.97,0.527-3.139,2.554-2.612,4.524c0.44,1.653,1.934,2.739,3.565,2.739c0.317,0,0.639-0.04,0.96-0.126l13.662-3.659
				l9.132,5.272l-9.132,5.272l-13.663-3.66c-1.966-0.527-3.998,0.646-4.525,2.612c-0.527,1.97,0.642,3.998,2.612,4.525l6.524,1.748
				L7.39,48.438c-1.768,1.021-2.374,3.28-1.353,5.048c0.685,1.187,1.927,1.847,3.204,1.847c0.628,0,1.263-0.159,1.844-0.494
				l1.874-1.082l-1.747,6.523c-0.527,1.97,0.642,3.998,2.612,4.525c0.321,0.086,0.642,0.126,0.96,0.126
				C16.414,64.932,17.908,63.842,18.348,62.193z"/>
		</g>
	</g>
</g>
<g>
</g>
<g>
</g>
<g>
</g>
<g>
</g>
<g>
</g>
<g>
</g>
<g>
</g>
<g>
</g>
<g>
</g>
<g>
</g>
<g>
</g>
<g>
</g>
<g>
</g>
<g>
</g>
<g>
</g>
</svg>
