<?xml version="1.0" encoding="iso-8859-1"?>
<!-- Generator: Adobe Illustrator 19.0.0, SVG Export Plug-In . SVG Version: 6.00 Build 0)  -->
<svg version="1.1" id="Capa_1" xmlns="http://www.w3.org/2000/svg" xmlns:xlink="http://www.w3.org/1999/xlink" x="0px" y="0px"
	 viewBox="0 0 512 512" style="enable-background:new 0 0 512 512;" xml:space="preserve">
<g>
	<g>
		<path d="M0,388.504V512h512V388.504H0z M98.326,465.253H57.657v-30.001h40.669V465.253z M454.342,465.253h-40.669v-30.001h40.669
			V465.253z"/>
	</g>
</g>
<g>
	<g>
		<path d="M0,235.008v123.496h512V235.008H0z M98.326,311.756H57.657v-30.001h40.669V311.756z M454.342,311.756h-40.669v-30.001
			h40.669V311.756z"/>
	</g>
</g>
<g>
	<g>
		<polygon points="145.377,0 76.866,0 73.018,41.513 149.225,41.513 		"/>
	</g>
</g>
<g>
	<g>
		<polygon points="290.256,0 221.744,0 217.896,41.513 294.103,41.513 		"/>
	</g>
</g>
<g>
	<g>
		<path d="M461.465,128.136c-10.305-10.61-16.732-24.565-18.097-39.293l-1.574-16.984l-0.032-0.346h-81.768l-0.032,0.346
			l-1.574,16.984c-1.365,14.728-7.792,28.682-18.096,39.292c-4.487,4.621-8.44,9.629-11.853,14.938
			c-3.412-5.308-7.365-10.316-11.853-14.937c-10.304-10.61-16.731-24.565-18.097-39.293l-1.574-16.984l-0.032-0.346h-81.768
			l-0.032,0.346l-1.574,16.985c-1.365,14.728-7.792,28.682-18.096,39.292c-4.487,4.621-8.44,9.629-11.853,14.938
			c-3.412-5.308-7.365-10.317-11.853-14.937c-10.305-10.611-16.731-24.565-18.097-39.293l-1.574-16.984l-0.032-0.346H70.237
			l-0.032,0.346l-1.574,16.984c-1.365,14.728-7.791,28.681-18.096,39.292c-17.317,17.831-26.853,41.338-26.853,66.193v10.677
			h464.636v-10.677C488.318,169.474,478.781,145.966,461.465,128.136z"/>
	</g>
</g>
<g>
	<g>
		<polygon points="435.133,0 366.622,0 362.775,41.513 438.982,41.513 		"/>
	</g>
</g>
<g>
</g>
<g>
</g>
<g>
</g>
<g>
</g>
<g>
</g>
<g>
</g>
<g>
</g>
<g>
</g>
<g>
</g>
<g>
</g>
<g>
</g>
<g>
</g>
<g>
</g>
<g>
</g>
<g>
</g>
</svg>
